<svg width="13" height="13" viewBox="0 0 13 13" fill="none" xmlns="http://www.w3.org/2000/svg">
<path d="M6.5 3.6055C7.047 3.6055 7.56599 3.7695 8.05899 4.043C8.55099 4.3164 8.934 4.6992 9.207 5.1914C9.48 5.6836 9.64499 6.2031 9.64499 6.75C9.64499 7.3242 9.48 7.8438 9.207 8.3359C8.934 8.8281 8.55099 9.2109 8.05899 9.4844C7.56599 9.7578 7.047 9.8945 6.5 9.8945C5.926 9.8945 5.406 9.7578 4.914 9.4844C4.422 9.2109 4.03899 8.8281 3.76599 8.3359C3.49199 7.8438 3.35501 7.3242 3.35501 6.75C3.35501 6.2031 3.49199 5.6836 3.76599 5.1914C4.03899 4.6992 4.422 4.3164 4.914 4.043C5.406 3.7695 5.926 3.6055 6.5 3.6055ZM6.5 8.8008C7.047 8.8008 7.53901 8.6094 7.94901 8.1992C8.33201 7.8164 8.55099 7.3242 8.55099 6.75C8.55099 6.2031 8.33201 5.7109 7.94901 5.3008C7.53901 4.918 7.047 4.6992 6.5 4.6992C5.926 4.6992 5.43399 4.918 5.05099 5.3008C4.64099 5.7109 4.44901 6.2031 4.44901 6.75C4.44901 7.3242 4.64099 7.8164 5.05099 8.1992C5.43399 8.6094 5.926 8.8008 6.5 8.8008ZM10.52 3.4688C10.52 3.2773 10.438 3.1133 10.301 2.9492C10.137 2.8125 9.97301 2.7305 9.78101 2.7305C9.56201 2.7305 9.39799 2.8125 9.26199 2.9492C9.09799 3.1133 9.043 3.2773 9.043 3.4688C9.043 3.6875 9.09799 3.8516 9.26199 3.9883C9.39799 4.1523 9.56201 4.207 9.78101 4.207C9.97301 4.207 10.137 4.1523 10.273 3.9883C10.41 3.8516 10.492 3.6875 10.52 3.4688ZM12.598 4.207C12.598 4.7266 12.625 5.5742 12.625 6.75C12.625 7.9531 12.598 8.8008 12.57 9.3203C12.543 9.8398 12.461 10.2773 12.352 10.6602C12.188 11.125 11.914 11.5352 11.586 11.8633C11.258 12.1914 10.848 12.4375 10.41 12.6016C10.027 12.7383 9.562 12.8203 9.043 12.8477C8.523 12.875 7.676 12.875 6.5 12.875C5.297 12.875 4.44899 12.875 3.92999 12.8477C3.40999 12.8203 2.973 12.7383 2.59 12.5742C2.125 12.4375 1.71499 12.1914 1.38699 11.8633C1.05899 11.5352 0.81201 11.125 0.64801 10.6602C0.51201 10.2773 0.430008 9.8398 0.402008 9.3203C0.375008 8.8008 0.375 7.9531 0.375 6.75C0.375 5.5742 0.375008 4.7266 0.402008 4.207C0.430008 3.6875 0.51201 3.2227 0.64801 2.8398C0.81201 2.4023 1.05899 1.9922 1.38699 1.6641C1.71499 1.3359 2.125 1.0625 2.59 0.898399C2.973 0.789099 3.40999 0.707001 3.92999 0.679701C4.44899 0.652301 5.297 0.625 6.5 0.625C7.676 0.625 8.523 0.652301 9.043 0.679701C9.562 0.707001 10.027 0.789099 10.41 0.898399C10.848 1.0625 11.258 1.3359 11.586 1.6641C11.914 1.9922 12.188 2.4023 12.352 2.8398C12.461 3.2227 12.543 3.6875 12.598 4.207ZM11.285 10.3594C11.395 10.0586 11.449 9.5664 11.504 8.8828C11.504 8.5 11.531 7.9258 11.531 7.1875V6.3125C11.531 5.5742 11.504 5 11.504 4.6172C11.449 3.9336 11.395 3.4414 11.285 3.1406C11.066 2.5938 10.656 2.1836 10.109 1.9648C9.80901 1.8555 9.316 1.8008 8.633 1.7461C8.223 1.7461 7.64799 1.7188 6.93799 1.7188H6.06201C5.32401 1.7188 4.75 1.7461 4.367 1.7461C3.684 1.8008 3.19099 1.8555 2.89099 1.9648C2.31599 2.1836 1.934 2.5938 1.715 3.1406C1.605 3.4414 1.523 3.9336 1.496 4.6172C1.469 5.0273 1.46899 5.6016 1.46899 6.3125V7.1875C1.46899 7.9258 1.469 8.5 1.496 8.8828C1.523 9.5664 1.605 10.0586 1.715 10.3594C1.934 10.9336 2.34399 11.3164 2.89099 11.5352C3.19099 11.6445 3.684 11.7266 4.367 11.7539C4.75 11.7812 5.32401 11.7812 6.06201 11.7812H6.93799C7.67599 11.7812 8.25 11.7812 8.633 11.7539C9.316 11.7266 9.80901 11.6445 10.109 11.5352C10.656 11.3164 11.066 10.9062 11.285 10.3594Z" fill="white"/>
</svg>
